<?xml version="1.0" encoding="UTF-8" standalone="no" ?>
<!DOCTYPE svg PUBLIC "-//W3C//DTD SVG 1.1//EN" "http://www.w3.org/Graphics/SVG/1.1/DTD/svg11.dtd">
<svg xmlns="http://www.w3.org/2000/svg" xmlns:xlink="http://www.w3.org/1999/xlink" version="1.1" width="450" height="450" viewBox="0 0 450 450" xml:space="preserve">
<desc>Created with Fabric.js 3.6.6</desc>
<defs>
</defs>
<g transform="matrix(7.23 0 0 7.23 224.9 281.61)"  >
<g style=""   >
		<g transform="matrix(1 0 0 1 0 -8)"  >
<path style="stroke: none; stroke-width: 1; stroke-dasharray: none; stroke-linecap: butt; stroke-dashoffset: 0; stroke-linejoin: miter; stroke-miterlimit: 4; fill: rgb(0,0,0); fill-rule: nonzero; opacity: 1;"  transform=" translate(-32, -32)" d="M 9.259 62 H 54.741 c 2.622 0 4.755 -2.133 4.755 -4.755 V 11.763 c 0 -2.622 -2.133 -4.755 -4.755 -4.755 h -17.152 c -0.002 -2.762 -2.249 -5.007 -5.011 -5.007 c -2.733 0 -4.981 2.223 -5.011 4.957 v 0.051 H 9.259 c -2.622 0 -4.755 2.133 -4.755 4.755 V 57.245 c 0 2.622 2.133 4.755 4.755 4.755 Z M 29.567 6.979 c 0.018 -1.643 1.369 -2.979 3.011 -2.979 c 1.659 0 3.009 1.349 3.011 3.007 h -6.023 v -0.029 Z M 6.503 11.763 c 0 -1.52 1.236 -2.755 2.755 -2.755 h 26.331 v 8.753 c 0 1.03 -0.838 1.869 -1.869 1.869 s -1.869 -0.838 -1.869 -1.869 v -5.739 c 0 -0.552 -0.448 -1 -1 -1 s -1 0.448 -1 1 v 5.739 c 0 2.133 1.735 3.869 3.869 3.869 s 3.869 -1.735 3.869 -3.869 V 9.007 h 17.151 c 1.52 0 2.755 1.236 2.755 2.755 V 57.245 c 0 1.52 -1.236 2.755 -2.755 2.755 H 9.259 c -1.52 0 -2.755 -1.236 -2.755 -2.755 V 11.763 Z" stroke-linecap="round" />
</g>
		<g transform="matrix(1 0 0 1 -8.38 37.43)" style=""  >
		<text xml:space="preserve" font-family="'Helvetica Neue', Helvetica, Arial-Unicode, Arial, Sans-serif" font-size="5" font-style="normal" font-weight="bold" style="stroke: none; stroke-width: 1; stroke-dasharray: none; stroke-linecap: butt; stroke-dashoffset: 0; stroke-linejoin: miter; stroke-miterlimit: 4; fill: rgb(0,0,0); fill-rule: nonzero; opacity: 1; white-space: pre;" ><tspan x="-23.62" y="1.57" >Created by Damong</tspan></text>
</g>
		<g transform="matrix(1 0 0 1 -5.75 42.43)" style=""  >
		<text xml:space="preserve" font-family="'Helvetica Neue', Helvetica, Arial-Unicode, Arial, Sans-serif" font-size="5" font-style="normal" font-weight="bold" style="stroke: none; stroke-width: 1; stroke-dasharray: none; stroke-linecap: butt; stroke-dashoffset: 0; stroke-linejoin: miter; stroke-miterlimit: 4; fill: rgb(0,0,0); fill-rule: nonzero; opacity: 1; white-space: pre;" ><tspan x="-26.25" y="1.57" >from the Noun Project</tspan></text>
</g>
</g>
</g>
</svg>